<svg xmlns="http://www.w3.org/2000/svg" width="160.035" height="40" viewBox="0 0 160.035 40"><g fill="#9C6"><path d="M16.84 21.675h6.09V40h-6.09z"/><path d="M11.07 27.708h18.326v6.09H11.07z"/></g><path fill="#069" d="M10.097 33.756H0v-5.728L14.154 4.952h7.105L7.324 27.862h2.772m12.594 0M23.155 14.457v-.05c0-2.633 2.26-4.124 5.54-4.124 1.763 0 2.98.224 4.197.546v-.547c0-2.558-1.565-3.875-4.173-3.875-1.54 0-2.808.422-3.975 1.02l-.447-1.07c1.392-.645 2.757-1.092 4.496-1.092 1.714 0 3.08.472 4 1.39.843.845 1.29 2.013 1.29 3.578v7.9h-1.192V16.02c-.87 1.218-2.434 2.41-4.844 2.41-2.36 0-4.893-1.34-4.893-3.973zm9.762-1.068v-1.442c-1.068-.273-2.484-.57-4.298-.57-2.684 0-4.173 1.19-4.173 2.955v.05c0 1.838 1.74 2.906 3.676 2.906 2.583-.002 4.794-1.592 4.794-3.9zM36.918 20.766l1.29-2.832c1.368.77 2.733 1.217 4.497 1.217 2.583 0 3.8-1.24 3.8-3.625v-.646c-1.117 1.34-2.334 2.16-4.347 2.16-3.104 0-5.91-2.26-5.91-6.21v-.05c0-3.974 2.855-6.21 5.91-6.21 2.062 0 3.28.87 4.298 1.988v-1.74h3.775v10.31c0 2.384-.57 4.123-1.688 5.24-1.242 1.242-3.154 1.79-5.738 1.79-2.16 0-4.198-.498-5.886-1.392zm9.587-9.936v-.05c0-1.812-1.416-3.08-3.253-3.08s-3.23 1.268-3.23 3.08v.05c0 1.84 1.392 3.08 3.23 3.08s3.253-1.267 3.253-3.08zM50.978 11.55v-.05c0-3.825 3.08-6.93 7.228-6.93 4.124 0 7.18 3.055 7.18 6.88v.05c0 3.826-3.08 6.93-7.23 6.93-4.122 0-7.178-3.055-7.178-6.88zm10.68 0v-.05c0-1.962-1.415-3.676-3.5-3.676-2.162 0-3.454 1.665-3.454 3.626v.05c0 1.962 1.416 3.676 3.5 3.676 2.164 0 3.455-1.663 3.455-3.626zM65.983 11.55v-.05c0-3.825 3.08-6.93 7.23-6.93 4.123 0 7.177 3.055 7.177 6.88v.05c0 3.826-3.08 6.93-7.228 6.93-4.124 0-7.18-3.055-7.18-6.88zm10.68 0v-.05c0-1.962-1.415-3.676-3.5-3.676-2.162 0-3.454 1.665-3.454 3.626v.05c0 1.962 1.415 3.676 3.5 3.676 2.162 0 3.454-1.663 3.454-3.626zM81.038 11.5v-.05c0-4.446 2.906-6.88 6.06-6.88 2.013 0 3.255.92 4.15 1.987V0h3.774v18.133h-3.775V16.22c-.92 1.242-2.186 2.16-4.148 2.16-3.107 0-6.062-2.433-6.062-6.88zm10.258 0v-.05c0-2.21-1.465-3.676-3.23-3.676s-3.253 1.44-3.253 3.676v.05c0 2.21 1.49 3.676 3.254 3.676s3.23-1.465 3.23-3.676zM97.16 11.85v-.05c0-3.553 2.832-6.633 6.458-6.633 2.385 0 3.875 1.093 5.067 2.335l-.87.894c-1.093-1.117-2.334-2.086-4.222-2.086-2.88 0-5.117 2.41-5.117 5.44v.05c0 3.054 2.31 5.488 5.217 5.488 1.788 0 3.18-.92 4.247-2.11l.845.744c-1.292 1.466-2.832 2.51-5.167 2.51-3.65 0-6.458-3.032-6.458-6.583zM110.178 14.457v-.05c0-2.633 2.26-4.124 5.54-4.124 1.763 0 2.98.224 4.197.546v-.547c0-2.558-1.565-3.875-4.173-3.875-1.54 0-2.807.422-3.975 1.02l-.447-1.07c1.392-.645 2.757-1.092 4.496-1.092 1.714 0 3.08.472 4 1.39.844.845 1.29 2.013 1.29 3.578v7.9h-1.19V16.02c-.87 1.218-2.436 2.41-4.845 2.41-2.358 0-4.892-1.34-4.892-3.973zm9.76-1.068v-1.442c-1.066-.273-2.482-.57-4.296-.57-2.683 0-4.173 1.19-4.173 2.955v.05c0 1.838 1.737 2.906 3.675 2.906 2.584-.002 4.794-1.592 4.794-3.9zM123.742 13.214v-7.75h1.217v7.526c0 2.608 1.464 4.322 4.023 4.322 2.483 0 4.396-1.888 4.396-4.52V5.464h1.216v12.668h-1.217v-2.36c-.846 1.49-2.262 2.658-4.57 2.658-3.206 0-5.068-2.185-5.068-5.216zM137.132 16.543l.72-.97c1.392 1.07 2.932 1.665 4.547 1.665 1.713 0 3.054-.944 3.054-2.41v-.05c0-1.49-1.59-2.036-3.354-2.532-2.06-.597-4.347-1.217-4.347-3.478v-.05c0-2.037 1.715-3.502 4.174-3.502 1.515 0 3.23.546 4.495 1.39l-.646 1.02c-1.168-.77-2.56-1.268-3.9-1.268-1.738 0-2.88.944-2.88 2.21v.05c0 1.416 1.713 1.937 3.526 2.46 2.036.57 4.173 1.315 4.173 3.55v.05c0 2.26-1.938 3.7-4.372 3.7-1.838.003-3.85-.742-5.19-1.835zM148.212 11.823v-.05c0-3.675 2.584-6.606 6.012-6.606 3.552 0 5.812 2.882 5.812 6.632 0 .222 0 .297-.024.496h-10.507c.224 3.154 2.483 4.992 4.968 4.992 1.963 0 3.304-.87 4.347-1.987l.845.747c-1.292 1.39-2.807 2.384-5.24 2.384-3.33 0-6.213-2.657-6.213-6.607zm10.507-.62c-.175-2.56-1.64-4.92-4.546-4.92-2.51 0-4.446 2.112-4.67 4.92h9.215z"/></svg>