<?xml version="1.0" encoding="utf-8"?>
<!-- Generator: Adobe Illustrator 15.1.0, SVG Export Plug-In . SVG Version: 6.00 Build 0)  -->
<!DOCTYPE svg PUBLIC "-//W3C//DTD SVG 1.1//EN" "http://www.w3.org/Graphics/SVG/1.1/DTD/svg11.dtd">
<svg version="1.1" id="Layer_1" xmlns="http://www.w3.org/2000/svg" xmlns:xlink="http://www.w3.org/1999/xlink" x="0px" y="0px"
	 width="160.035px" height="40px" viewBox="0 0 160.035 40" enable-background="new 0 0 160.035 40" xml:space="preserve">
<g>
	<rect x="16.839" y="21.675" fill="#99CC66" width="6.09" height="18.325"/>
	<rect x="11.071" y="27.708" fill="#99CC66" width="18.325" height="6.09"/>
</g>
<g>
	<path fill="#006699" d="M10.097,33.756H0v-5.728L14.154,4.952h7.105L7.325,27.863h2.772 M22.691,27.863"/>
</g>
<path fill="#006699" d="M23.155,14.457v-0.05c0-2.633,2.261-4.124,5.54-4.124c1.763,0,2.98,0.224,4.197,0.546v-0.546
	c0-2.558-1.565-3.875-4.173-3.875c-1.54,0-2.807,0.422-3.974,1.019l-0.447-1.068c1.392-0.646,2.757-1.093,4.496-1.093
	c1.714,0,3.08,0.472,3.999,1.391c0.844,0.844,1.292,2.012,1.292,3.577v7.899h-1.193v-2.112c-0.869,1.217-2.434,2.41-4.844,2.41
	C25.689,18.431,23.155,17.089,23.155,14.457z M32.917,13.389v-1.441c-1.068-0.273-2.484-0.571-4.298-0.571
	c-2.683,0-4.172,1.192-4.172,2.956v0.05c0,1.838,1.739,2.906,3.676,2.906C30.706,17.288,32.917,15.698,32.917,13.389z"/>
<path fill="#006699" d="M36.918,20.766l1.291-2.832c1.367,0.77,2.732,1.217,4.496,1.217c2.583,0,3.8-1.242,3.8-3.626v-0.646
	c-1.117,1.341-2.334,2.161-4.347,2.161c-3.104,0-5.911-2.26-5.911-6.21v-0.05c0-3.974,2.856-6.209,5.911-6.209
	c2.062,0,3.279,0.87,4.298,1.987V4.819h3.775v10.309c0,2.384-0.571,4.123-1.689,5.24c-1.242,1.242-3.154,1.789-5.738,1.789
	C40.644,22.157,38.606,21.66,36.918,20.766z M46.505,10.83v-0.05c0-1.812-1.416-3.08-3.253-3.08s-3.229,1.268-3.229,3.08v0.05
	c0,1.839,1.391,3.08,3.229,3.08S46.505,12.643,46.505,10.83z"/>
<path fill="#006699" d="M50.978,11.55V11.5c0-3.825,3.08-6.93,7.228-6.93c4.124,0,7.179,3.055,7.179,6.88v0.05
	c0,3.826-3.08,6.93-7.228,6.93C54.034,18.431,50.978,15.375,50.978,11.55z M61.659,11.55V11.5c0-1.962-1.416-3.676-3.502-3.676
	c-2.161,0-3.453,1.665-3.453,3.626v0.05c0,1.962,1.416,3.676,3.501,3.676C60.368,15.177,61.659,13.513,61.659,11.55z"/>
<path fill="#006699" d="M65.983,11.55V11.5c0-3.825,3.08-6.93,7.229-6.93c4.124,0,7.178,3.055,7.178,6.88v0.05
	c0,3.826-3.08,6.93-7.228,6.93C69.038,18.431,65.983,15.375,65.983,11.55z M76.664,11.55V11.5c0-1.962-1.416-3.676-3.502-3.676
	c-2.161,0-3.453,1.665-3.453,3.626v0.05c0,1.962,1.416,3.676,3.502,3.676C75.372,15.177,76.664,13.513,76.664,11.55z"/>
<path fill="#006699" d="M81.038,11.5v-0.05c0-4.446,2.906-6.88,6.061-6.88c2.012,0,3.254,0.919,4.148,1.987V0h3.775v18.133h-3.775
	V16.22c-0.92,1.242-2.186,2.161-4.148,2.161C83.993,18.381,81.038,15.947,81.038,11.5z M91.296,11.5v-0.05
	c0-2.211-1.465-3.676-3.229-3.676s-3.254,1.44-3.254,3.676v0.05c0,2.21,1.49,3.676,3.254,3.676S91.296,13.711,91.296,11.5z"/>
<path fill="#006699" d="M97.16,11.849v-0.05c0-3.552,2.832-6.632,6.458-6.632c2.385,0,3.875,1.093,5.067,2.335l-0.869,0.894
	c-1.094-1.117-2.335-2.086-4.223-2.086c-2.881,0-5.117,2.409-5.117,5.439v0.05c0,3.055,2.311,5.489,5.217,5.489
	c1.788,0,3.18-0.919,4.247-2.111l0.845,0.745c-1.292,1.466-2.832,2.509-5.167,2.509C99.967,18.431,97.16,15.4,97.16,11.849z"/>
<path fill="#006699" d="M110.178,14.457v-0.05c0-2.633,2.261-4.124,5.539-4.124c1.764,0,2.98,0.224,4.198,0.546v-0.546
	c0-2.558-1.565-3.875-4.173-3.875c-1.54,0-2.807,0.422-3.975,1.019l-0.447-1.068c1.392-0.646,2.757-1.093,4.496-1.093
	c1.714,0,3.08,0.472,3.999,1.391c0.845,0.844,1.292,2.012,1.292,3.577v7.899h-1.192v-2.112c-0.87,1.217-2.435,2.41-4.844,2.41
	C112.712,18.431,110.178,17.089,110.178,14.457z M119.939,13.389v-1.441c-1.067-0.273-2.483-0.571-4.297-0.571
	c-2.683,0-4.173,1.192-4.173,2.956v0.05c0,1.838,1.738,2.906,3.676,2.906C117.729,17.288,119.939,15.698,119.939,13.389z"/>
<path fill="#006699" d="M123.742,13.214v-7.75h1.217v7.526c0,2.608,1.465,4.322,4.024,4.322c2.483,0,4.396-1.888,4.396-4.521V5.465
	h1.217v12.668h-1.217v-2.36c-0.845,1.49-2.261,2.658-4.57,2.658C125.604,18.431,123.742,16.245,123.742,13.214z"/>
<path fill="#006699" d="M137.132,16.543l0.721-0.969c1.391,1.068,2.931,1.664,4.546,1.664c1.714,0,3.055-0.944,3.055-2.41v-0.049
	c0-1.491-1.59-2.037-3.354-2.533c-2.061-0.597-4.347-1.217-4.347-3.478v-0.05c0-2.037,1.715-3.502,4.174-3.502
	c1.515,0,3.229,0.546,4.495,1.391l-0.646,1.018c-1.168-0.77-2.559-1.267-3.899-1.267c-1.739,0-2.882,0.944-2.882,2.21v0.05
	c0,1.416,1.714,1.937,3.527,2.459c2.036,0.571,4.173,1.316,4.173,3.551v0.05c0,2.26-1.938,3.701-4.372,3.701
	C140.485,18.381,138.474,17.636,137.132,16.543z"/>
<path fill="#006699" d="M148.212,11.823v-0.049c0-3.676,2.584-6.607,6.012-6.607c3.552,0,5.812,2.882,5.812,6.632
	c0,0.223,0,0.298-0.024,0.497h-10.507c0.224,3.154,2.483,4.992,4.968,4.992c1.963,0,3.304-0.869,4.347-1.987l0.845,0.746
	c-1.292,1.391-2.807,2.384-5.241,2.384C151.094,18.431,148.212,15.773,148.212,11.823z M158.719,11.202
	c-0.174-2.558-1.639-4.918-4.545-4.918c-2.509,0-4.446,2.111-4.67,4.918H158.719z"/>
</svg>
